<?xml version="1.0" encoding="UTF-8"?>
<svg xmlns="http://www.w3.org/2000/svg" xmlns:xlink="http://www.w3.org/1999/xlink" viewBox="0 0 120.14 99.41">
  <defs>
    <style>
      .cls-1 {
        fill: url(#linear-gradient-2);
        opacity: .41;
      }

      .cls-1, .cls-2, .cls-3, .cls-4 {
        mix-blend-mode: multiply;
      }

      .cls-5 {
        fill: none;
      }

      .cls-6 {
        fill: url(#linear-gradient-4);
        mix-blend-mode: soft-light;
      }

      .cls-2 {
        fill: url(#linear-gradient-6);
      }

      .cls-2, .cls-3 {
        opacity: .75;
      }

      .cls-7 {
        fill: #3c2415;
      }

      .cls-8 {
        fill: url(#linear-gradient-3);
      }

      .cls-9 {
        isolation: isolate;
      }

      .cls-3 {
        fill: url(#linear-gradient-7);
      }

      .cls-4 {
        fill: url(#linear-gradient-5);
        opacity: .46;
      }

      .cls-10 {
        fill: url(#linear-gradient);
      }
    </style>
    <linearGradient id="linear-gradient" x1="84.41" y1="84.76" x2="57.08" y2="18.01" gradientUnits="userSpaceOnUse">
      <stop offset="0" stop-color="#fbb040"/>
      <stop offset="1" stop-color="#f15a29"/>
    </linearGradient>
    <linearGradient id="linear-gradient-2" x1="106.78" y1="72.31" x2="74.31" y2="-6.96" xlink:href="#linear-gradient"/>
    <linearGradient id="linear-gradient-3" x1="47.43" y1="68.79" x2="91.97" y2="68.79" gradientUnits="userSpaceOnUse">
      <stop offset="0" stop-color="#c2b59b"/>
      <stop offset=".46" stop-color="#c3b499"/>
      <stop offset=".62" stop-color="#c7b492"/>
      <stop offset=".74" stop-color="#ceb386"/>
      <stop offset=".84" stop-color="#d9b275"/>
      <stop offset=".92" stop-color="#e7b15f"/>
      <stop offset=".99" stop-color="#f7b045"/>
      <stop offset="1" stop-color="#fbb040"/>
    </linearGradient>
    <linearGradient id="linear-gradient-4" x1="59.52" y1="68.79" x2="91.97" y2="68.79" xlink:href="#linear-gradient-3"/>
    <linearGradient id="linear-gradient-5" x1="110.31" y1="81.09" x2="96.36" y2="47" xlink:href="#linear-gradient"/>
    <linearGradient id="linear-gradient-6" x1="-165.33" y1="20.25" x2="-60.66" y2="93.99" gradientTransform="translate(160.05 24.61) rotate(2.2)" xlink:href="#linear-gradient"/>
    <linearGradient id="linear-gradient-7" x1="2082.93" y1="979.69" x2="2187.61" y2="1053.43" gradientTransform="translate(-2295.29 333.63) rotate(-31.72)" xlink:href="#linear-gradient"/>
  </defs>
  <g class="cls-9">
    <g id="Layer_1" data-name="Layer 1">
      <g>
        <path class="cls-10" d="M120.14,53.24c0,9.92-2.72,19.21-7.44,27.16-4.44,7.48-10.67,13.77-18.09,18.31-.9-.6-1.78-1.23-2.64-1.88-5.09-3.86-9.46-8.61-12.89-14.03-5.2-8.22-8.21-17.97-8.21-28.42,0-5.65.88-11.1,2.51-16.21-3.52,11.33-13.19,19.96-25.11,21.99-.2.04-.4.07-.6.1-1.56.23-3.16.36-4.79.36-12.3,0-22.98-6.96-28.31-17.15.86-4.65,2.33-9.09,4.32-13.24,5.65-11.77,15.5-21.15,27.62-26.18,3-1.25,6.15-2.23,9.4-2.91.79-.17,1.59-.32,2.4-.45,2.8-.46,5.68-.7,8.61-.7,10.91,0,21.06,3.28,29.5,8.91,10.51,7.01,18.39,17.66,21.83,30.14,1.25,4.52,1.91,9.27,1.91,14.19Z"/>
        <path class="cls-1" d="M120.14,53.24c0,5-.69,9.83-1.98,14.41C111.02,34.9,85.24,9.12,52.49,1.98c1.12-.31,2.25-.59,3.4-.83.79-.17,1.59-.32,2.4-.45C61.09.24,63.97,0,66.9,0,77.81,0,87.96,3.28,96.4,8.91c10.51,7.01,18.39,17.66,21.83,30.14,1.25,4.52,1.91,9.27,1.91,14.19Z"/>
        <path class="cls-8" d="M91.97,96.83c-3.87,1.66-8.12,2.58-12.6,2.58-17.64,0-31.94-14.3-31.94-31.94,0-2.24.23-4.44.67-6.55.05-.25.11-.5.17-.75,11.92-2.03,21.59-10.66,25.11-21.99-1.63,5.11-2.51,10.56-2.51,16.21,0,10.45,3.01,20.2,8.21,28.42,3.42,5.42,7.8,10.17,12.89,14.03Z"/>
        <path class="cls-6" d="M91.97,96.83c-3.87,1.66-8.12,2.58-12.6,2.58-2.29,0-4.52-.24-6.67-.7-7.87-12.46-12.63-27.08-13.18-42.77,6.55-4,11.54-10.3,13.86-17.77-1.63,5.11-2.51,10.56-2.51,16.21,0,10.45,3.01,20.2,8.21,28.42,3.43,5.42,7.8,10.17,12.89,14.03Z"/>
        <path class="cls-4" d="M103.24,34.84c7.12,9.6,12.29,20.73,14.92,32.81-1.27,4.52-3.12,8.8-5.47,12.75-3.11,5.24-7.1,9.9-11.77,13.78-2.71-8.36-4.17-17.27-4.17-26.53,0-11.62,2.3-22.7,6.47-32.81Z"/>
        <path class="cls-2" d="M47.43,60.24c-1.29,1.51-2.71,2.9-4.26,4.14-2.49,2.01-5.29,3.66-8.31,4.85-4,1.59-8.39,2.38-12.97,2.21-8.43-.32-15.96-3.88-21.47-9.44h0c-.34-2.1-.49-4.26-.4-6.46.04-1.04.13-2.07.27-3.08.18-1.33.44-2.62.77-3.89,8.82,7.62,20.19,12.41,32.75,12.89,4.68.18,9.25-.25,13.62-1.22Z"/>
        <path class="cls-3" d="M48.02,60.16c-.22,1.97-.63,3.92-1.22,5.81-.95,3.06-2.35,5.99-4.19,8.66-2.43,3.55-5.63,6.66-9.53,9.07-7.17,4.43-15.42,5.69-23.08,4.15h0c-1.45-1.55-2.78-3.26-3.94-5.14-.55-.89-1.05-1.79-1.5-2.71-.59-1.2-1.1-2.42-1.53-3.66,11.57,1.4,23.68-.96,34.37-7.57,3.99-2.46,7.53-5.37,10.62-8.61Z"/>
        <path class="cls-5" d="M95.8,32.32l.63-.63c-.17.11-.33.23-.45.37-.07.08-.12.18-.19.27Z"/>
        <g>
          <path class="cls-7" d="M59.55,55.11c.49,0,.98-.02,1.46-.04.22-.01.43-.11.59-.26L102.97,14.08c-.07-.09-.51-.5-.58-.53-1.27,1.26-2.54,2.52-3.81,3.79-6.05,6.01-12.21,12.12-18.21,18.09-.99.99-1.97.66-2.19-.72-.23-1.45-.62-2.78-1.18-4-.98-2.13-2.31-3.91-4.01-5.35-1.7-1.44-3.7-2.52-6-3.24-2.3-.72-4.77-1.08-7.39-1.08-2.05,0-4.33.04-6.84.12-2.24.07-4.6.11-7.08.12-.5,0-.91.41-.91.91,0,.47.37.87.83.9,1.19.08,2.03.36,2.53.84.61.58.91,1.42.91,2.54v23.23c0,1.12-.3,1.97-.91,2.54-.5.47-1.34.75-2.53.84-.47.03-.83.43-.83.9,0,.5.41.9.91.91,2.51,0,4.88.05,7.1.12,2.5.08,4.75.12,6.77.12ZM53.55,26.46c0-1.02.25-1.84.74-2.45.5-.61,1.46-.93,2.9-.96h2.4c2.37,0,4.42.36,6.14,1.08,1.73.72,3.15,1.74,4.27,3.05,1.12,1.31,1.95,2.9,2.5,4.75.54,1.86.82,3.92.82,6.19v2.34c0,1.09-.64,2.61-1.41,3.38l-7.63,7.58c-.98.97-2.27,1.57-3.64,1.65-.36.02-.73.03-1.1.03h-1.87c-1.6,0-2.69-.29-3.26-.86s-.86-1.42-.86-2.54v-23.23Z"/>
          <path class="cls-7" d="M92.14,44.2c-.78-.94-1.9-1.72-3.36-2.33-1.46-.61-3.38-.91-5.78-.91h-.24.01s-.72,0-.72,0l-33.84,33.55.12.47,23.88-23.49c.66-.66,1.78-.19,1.78.74v17.15c0,1.12-.3,1.97-.91,2.54-.61.58-1.73.86-3.36.86v1.78h14.11l.19-1.39-.19-.38c-1.12,0-2.02-.07-2.71-.22-.69-.14-1.22-.36-1.61-.65-.38-.29-.65-.65-.79-1.08-.14-.43-.22-.92-.22-1.46v-9.17c.48.06.94.1,1.37.1h1.32c2.5,0,4.57-.33,6.22-.98,1.65-.66,2.97-1.47,3.96-2.45.99-.98,1.7-2.02,2.11-3.12.42-1.1.62-2.12.62-3.05,0-1.09-.13-2.21-.38-3.36-.26-1.15-.78-2.2-1.56-3.14ZM89.28,52.91c-.32,1.09-.86,2.03-1.61,2.83-.75.8-1.75,1.42-3,1.87-1.25.45-2.78.67-4.61.67h-.79c-.3,0-.57-.02-.79-.05v-12.1c0-.38.04-.72.12-1.04l1.42-1.42c.61-.6,1.43-.94,2.28-.95h.02c1.41,0,2.59.18,3.55.55.96.37,1.73.86,2.3,1.46.58.61.98,1.31,1.22,2.11.24.8.36,1.65.36,2.54,0,1.25-.16,2.42-.48,3.5Z"/>
        </g>
      </g>
    </g>
  </g>
</svg>